<svg width="16" height="16" viewBox="0 0 16 16" fill="none" xmlns="http://www.w3.org/2000/svg">
<path d="M13.3562 9.64376L8.35623 4.64376C8.26143 4.54986 8.1334 4.49719 7.99998 4.49719C7.86655 4.49719 7.73852 4.54986 7.64373 4.64376L2.64373 9.64376C2.5759 9.71605 2.52992 9.80607 2.51112 9.9034C2.49231 10.0007 2.50145 10.1014 2.53748 10.1938C2.57573 10.2848 2.64006 10.3624 2.72236 10.4169C2.80467 10.4714 2.90126 10.5003 2.99998 10.5H13C13.0987 10.5003 13.1953 10.4714 13.2776 10.4169C13.3599 10.3624 13.4242 10.2848 13.4625 10.1938C13.4985 10.1014 13.5076 10.0007 13.4888 9.9034C13.47 9.80607 13.4241 9.71605 13.3562 9.64376Z" fill="#44E67F"/>
</svg>
