<svg width="16" height="16" viewBox="0 0 16 16" fill="none" xmlns="http://www.w3.org/2000/svg">
<path d="M14.5125 3.23125V6.23125C14.5125 6.36386 14.4599 6.49104 14.3661 6.5848C14.2723 6.67857 14.1452 6.73125 14.0125 6.73125H11.0125C10.9142 6.73109 10.818 6.7019 10.7361 6.64734C10.6542 6.59278 10.5903 6.51527 10.5522 6.42452C10.5142 6.33377 10.5038 6.23382 10.5223 6.13718C10.5408 6.04055 10.5874 5.95152 10.6563 5.88125L11.8063 4.73125L11.5375 4.4625C10.5981 3.52667 9.32608 3.00123 8.00005 3.00123C6.67402 3.00123 5.40201 3.52667 4.46255 4.4625C4.41656 4.50956 4.36163 4.54695 4.30099 4.57247C4.24035 4.598 4.17522 4.61115 4.10942 4.61115C4.04363 4.61115 3.9785 4.598 3.91785 4.57247C3.85721 4.54695 3.80229 4.50956 3.7563 4.4625C3.66279 4.36877 3.61028 4.24177 3.61028 4.10938C3.61028 3.97698 3.66279 3.84998 3.7563 3.75625C4.88323 2.63341 6.40922 2.00294 8.00005 2.00294C9.59088 2.00294 11.1169 2.63341 12.2438 3.75625L12.5125 4.025L13.6563 2.88125C13.7257 2.81086 13.8143 2.76261 13.9111 2.74258C14.0079 2.72256 14.1084 2.73166 14.2 2.76875C14.2913 2.80739 14.3693 2.87164 14.4248 2.95372C14.4802 3.03581 14.5107 3.1322 14.5125 3.23125ZM11.5375 11.5375C10.5981 12.4733 9.32608 12.9988 8.00005 12.9988C6.67402 12.9988 5.40201 12.4733 4.46255 11.5375L4.1938 11.2688L5.3438 10.1187C5.41268 10.0485 5.45929 9.95945 5.4778 9.86282C5.49631 9.76618 5.4859 9.66623 5.44786 9.57548C5.40983 9.48473 5.34587 9.40722 5.26399 9.35266C5.1821 9.2981 5.08594 9.26891 4.98755 9.26875H1.98755C1.85494 9.26875 1.72776 9.32143 1.634 9.4152C1.54023 9.50896 1.48755 9.63614 1.48755 9.76875V12.7688C1.48937 12.8678 1.51985 12.9642 1.57531 13.0463C1.63077 13.1284 1.70883 13.1926 1.80005 13.2312C1.85955 13.2557 1.92322 13.2684 1.98755 13.2688C2.05402 13.2694 2.11991 13.2564 2.18118 13.2306C2.24244 13.2048 2.29778 13.1667 2.3438 13.1187L3.48755 11.975L3.7563 12.2437C4.88242 13.3681 6.40871 13.9996 8.00005 13.9996C9.59138 13.9996 11.1177 13.3681 12.2438 12.2437C12.3373 12.15 12.3898 12.023 12.3898 11.8906C12.3898 11.7582 12.3373 11.6312 12.2438 11.5375C12.1978 11.4904 12.1429 11.4531 12.0822 11.4275C12.0216 11.402 11.9565 11.3888 11.8907 11.3888C11.8249 11.3888 11.7597 11.402 11.6991 11.4275C11.6385 11.4531 11.5835 11.4904 11.5375 11.5375Z" fill="white"/>
</svg>
