<svg width="24" height="24" viewBox="0 0 24 24" fill="none" xmlns="http://www.w3.org/2000/svg">
<path d="M20.0344 17.0344L17.0344 20.0344C16.8905 20.172 16.6992 20.2492 16.5001 20.25C16.4005 20.2496 16.302 20.2305 16.2094 20.1937C16.0729 20.1364 15.9565 20.0399 15.8747 19.9164C15.793 19.793 15.7496 19.6481 15.7501 19.5V17.25H4.50007C4.30116 17.25 4.11039 17.171 3.96974 17.0303C3.82909 16.8897 3.75007 16.6989 3.75007 16.5C3.75007 16.3011 3.82909 16.1103 3.96974 15.9697C4.11039 15.829 4.30116 15.75 4.50007 15.75H15.7501V13.5C15.7496 13.3519 15.793 13.207 15.8747 13.0836C15.9565 12.9601 16.0729 12.8636 16.2094 12.8062C16.348 12.7522 16.499 12.7385 16.645 12.7667C16.791 12.7949 16.926 12.8639 17.0344 12.9656L20.0344 15.9656C20.1753 16.1078 20.2543 16.2999 20.2543 16.5C20.2543 16.7001 20.1753 16.8922 20.0344 17.0344ZM6.96569 11.0344C7.10966 11.172 7.30091 11.2492 7.50007 11.25C7.59961 11.2496 7.69818 11.2305 7.79069 11.1937C7.9272 11.1364 8.04366 11.0399 8.12541 10.9164C8.20716 10.793 8.25053 10.6481 8.25007 10.5V8.24999H19.5001C19.699 8.24999 19.8897 8.17098 20.0304 8.03032C20.1711 7.88967 20.2501 7.69891 20.2501 7.49999C20.2501 7.30108 20.1711 7.11032 20.0304 6.96966C19.8897 6.82901 19.699 6.74999 19.5001 6.74999H8.25007V4.49999C8.25053 4.35193 8.20716 4.20703 8.12541 4.08358C8.04366 3.96012 7.9272 3.86362 7.79069 3.80624C7.65216 3.75221 7.50116 3.7385 7.35516 3.76671C7.20916 3.79491 7.07413 3.86387 6.96569 3.96562L3.96569 6.96562C3.82486 7.10781 3.74585 7.29986 3.74585 7.49999C3.74585 7.70013 3.82486 7.89217 3.96569 8.03437L6.96569 11.0344Z" fill="white"/>
</svg>
